<svg width="48" height="48" viewBox="0 0 48 48" fill="none" xmlns="http://www.w3.org/2000/svg">
<path fill-rule="evenodd" clip-rule="evenodd" d="M3.99994 24C3.99994 12.9543 12.9542 4 23.9999 4C29.3043 4 34.3913 6.10714 38.1421 9.85786C41.8928 13.6086 43.9999 18.6957 43.9999 24C43.9999 35.0457 35.0456 44 23.9999 44C12.9542 44 3.99994 35.0457 3.99994 24ZM27.4199 33.4201L35.4199 25.4201C35.6019 25.2298 35.7447 25.0056 35.8399 24.7601C36.0399 24.2731 36.0399 23.727 35.8399 23.2401C35.7447 22.9945 35.6019 22.7703 35.4199 22.5801L27.4199 14.5801C26.9125 14.0727 26.1731 13.8746 25.4801 14.0603C24.7871 14.246 24.2458 14.7873 24.0601 15.4803C23.8744 16.1733 24.0725 16.9127 24.5799 17.4201L29.1799 22.0001H13.9999C12.8953 22.0001 11.9999 22.8955 11.9999 24.0001C11.9999 25.1046 12.8953 26.0001 13.9999 26.0001H29.1799L24.5799 30.5801C24.2012 30.9556 23.9883 31.4668 23.9883 32.0001C23.9883 32.5333 24.2012 33.0445 24.5799 33.4201C24.9554 33.7987 25.4666 34.0116 25.9999 34.0116C26.5331 34.0116 27.0443 33.7987 27.4199 33.4201Z" fill="white"/>
</svg>
