<svg width="28" height="28" viewBox="0 0 28 28" fill="none" xmlns="http://www.w3.org/2000/svg">
<g id="Group">
<g id="Layer_6">
<path id="Shape" fill-rule="evenodd" clip-rule="evenodd" d="M0.666016 13.6793C0.666016 6.31548 6.63555 0.345947 13.9993 0.345947C17.5356 0.345947 20.927 1.75071 23.4274 4.25119C25.9279 6.75168 27.3327 10.1431 27.3327 13.6793C27.3327 21.0431 21.3631 27.0126 13.9993 27.0126C6.63555 27.0126 0.666016 21.0431 0.666016 13.6793ZM16.2796 19.9592L21.613 14.6259C21.7344 14.4991 21.8295 14.3496 21.893 14.1859C22.0263 13.8613 22.0263 13.4972 21.893 13.1726C21.8295 13.0089 21.7344 12.8594 21.613 12.7326L16.2796 7.39923C15.9414 7.06102 15.4485 6.92893 14.9865 7.05273C14.5245 7.17652 14.1636 7.53739 14.0398 7.9994C13.916 8.4614 14.0481 8.95436 14.3863 9.29257L17.453 12.3459H7.33297C6.59659 12.3459 5.99963 12.9429 5.99963 13.6792C5.99963 14.4156 6.59659 15.0126 7.33297 15.0126H17.453L14.3863 18.0659C14.1339 18.3163 13.9919 18.6571 13.9919 19.0126C13.9919 19.3681 14.1339 19.7089 14.3863 19.9592C14.6367 20.2117 14.9775 20.3536 15.333 20.3536C15.6885 20.3536 16.0293 20.2117 16.2796 19.9592Z" fill="url(#paint0_linear_248_46)"/>
</g>
</g>
<defs>
<linearGradient id="paint0_linear_248_46" x1="13.9993" y1="0.345947" x2="13.9993" y2="27.0126" gradientUnits="userSpaceOnUse">
<stop stop-color="#FFA234"/>
<stop offset="1" stop-color="#CD1414"/>
</linearGradient>
</defs>
</svg>
