<svg width="34" height="34" viewBox="0 0 34 34" fill="none" xmlns="http://www.w3.org/2000/svg">
<g id="Group 40362">
<path id="Vector" d="M33.7622 16.5584C33.7621 13.3938 32.8551 10.2954 31.1486 7.63028C29.442 4.96516 27.0074 2.84494 24.1331 1.52071C21.2588 0.196483 18.0652 -0.276279 14.9305 0.158415C11.7959 0.593109 8.85142 1.91705 6.44593 3.97344C4.04043 6.02983 2.27465 8.73253 1.3577 11.7615C0.440756 14.7904 0.411062 18.0186 1.27213 21.0639C2.13321 24.1092 3.84897 26.8439 6.21624 28.9442C8.5835 31.0445 11.5031 32.4224 14.6292 32.9147V21.3417H10.4126V16.5584H14.6292V12.9109C14.6292 8.76053 17.0822 6.46948 20.872 6.46948C22.1137 6.48685 23.3525 6.59507 24.5784 6.79327V10.8676H22.4909C20.4329 10.8676 19.7927 12.1431 19.7927 13.453V16.5584H24.3846L23.6487 21.3417H19.7927V32.9122C23.6868 32.2955 27.2331 30.3097 29.7938 27.3119C32.3545 24.3141 33.7617 20.501 33.7622 16.5584Z" fill="url(#paint0_linear_46_412)"/>
<path id="Vector_2" d="M23.6482 21.3417L24.3841 16.556H19.7922V13.453C19.7922 12.1431 20.4324 10.8676 22.4904 10.8676H24.5779V6.79327C23.352 6.59507 22.1132 6.48686 20.8715 6.46948C17.0817 6.46948 14.6287 8.76053 14.6287 12.9109V16.5584H10.4121V21.3417H14.6287V32.9122C16.3435 33.1804 18.0896 33.1804 19.8044 32.9122V21.3417H23.6482Z" fill="white"/>
</g>
<defs>
<linearGradient id="paint0_linear_46_412" x1="17.2048" y1="0.00146484" x2="17.2048" y2="32.9147" gradientUnits="userSpaceOnUse">
<stop stop-color="#E48024"/>
<stop offset="1" stop-color="#C60000"/>
</linearGradient>
</defs>
</svg>
