<svg width="34" height="34" viewBox="0 0 34 34" fill="none" xmlns="http://www.w3.org/2000/svg">
<g id="Group 40361">
<path id="Vector" d="M16.7947 33.1147C25.9391 33.1147 33.3521 25.7018 33.3521 16.5574C33.3521 7.41299 25.9391 0 16.7947 0C7.6503 0 0.237305 7.41299 0.237305 16.5574C0.237305 25.7018 7.6503 33.1147 16.7947 33.1147Z" fill="url(#paint0_linear_46_418)"/>
<path id="Vector_2" d="M27.3845 11.2443C27.2594 10.7732 27.012 10.3436 26.6674 9.99903C26.3228 9.65441 25.8932 9.40702 25.4221 9.28193C23.7051 8.82568 16.7951 8.82568 16.7951 8.82568C16.7951 8.82568 9.89255 8.82568 8.17058 9.28684C7.69954 9.41192 7.26993 9.65931 6.92531 10.0039C6.58069 10.3486 6.33331 10.7782 6.20823 11.2492C5.74707 12.9663 5.74707 16.5623 5.74707 16.5623C5.74707 16.5623 5.74707 20.1534 6.20823 21.8754C6.334 22.3461 6.58161 22.7753 6.92613 23.1198C7.27064 23.4643 7.69988 23.7119 8.17058 23.8377C9.88764 24.2989 16.7951 24.2989 16.7951 24.2989C16.7951 24.2989 23.7051 24.2792 25.4221 23.823C25.8928 23.6972 26.3221 23.4496 26.6666 23.1051C27.0111 22.7606 27.2587 22.3313 27.3845 21.8606C27.8456 20.1436 27.8456 16.5476 27.8456 16.5476C27.8456 16.5476 27.8334 12.9638 27.3845 11.2443ZM14.5875 19.8639V13.241L20.3225 16.5525L14.5875 19.8639Z" fill="white"/>
</g>
<defs>
<linearGradient id="paint0_linear_46_418" x1="16.7947" y1="0" x2="16.7947" y2="33.1147" gradientUnits="userSpaceOnUse">
<stop stop-color="#E48024"/>
<stop offset="1" stop-color="#C60000"/>
</linearGradient>
</defs>
</svg>
